HIERARCHY
ROOT Pelvis
{
	OFFSET -0.217368 -24.078917 2.858379
	CHANNELS 6 Xposition Yposition Zposition Zrotation Yrotation Xrotation 
	JOINT Left_hip
	{
		OFFSET 5.858135 -8.228005 -1.766408
		CHANNELS 3 Zrotation Yrotation Xrotation
		JOINT Left_knee
		{
			OFFSET 4.345143 -38.646942 0.803700
			CHANNELS 3 Zrotation Yrotation Xrotation
			JOINT Left_ankle
			{
				OFFSET -1.479033 -42.687447 -3.742800
				CHANNELS 3 Zrotation Yrotation Xrotation
				JOINT Left_foot
				{
					OFFSET 4.105436 -6.028605 12.204244
					CHANNELS 3 Zrotation Yrotation Xrotation
					End Site
					{
						OFFSET 0.000000 0.000000 0.000000
					}
				}
			}
		}
	}
	JOINT Right_hip
	{
		OFFSET -6.030973 -9.051328 -1.354253
		CHANNELS 3 Zrotation Yrotation Xrotation
		JOINT Right_knee
		{
			OFFSET -4.325663 -38.368790 -0.484304
			CHANNELS 3 Zrotation Yrotation Xrotation
			JOINT Right_ankle
			{
				OFFSET 1.905555 -42.004566 -3.456167
				CHANNELS 3 Zrotation Yrotation Xrotation
				JOINT Right_foot
				{
					OFFSET -3.483987 -6.210554 13.032330
					CHANNELS 3 Zrotation Yrotation Xrotation
					End Site
					{
						OFFSET 0.000000 0.000000 0.000000
					}
				}
			}
		}
	}
	JOINT Spine1
	{
		OFFSET 0.443945 12.440353 -3.838522
		CHANNELS 3 Zrotation Yrotation Xrotation
		JOINT Spine2
		{
			OFFSET 0.448844 13.795640 2.682033
			CHANNELS 3 Zrotation Yrotation Xrotation
			JOINT Spine3
			{
				OFFSET -0.226460 5.603239 0.285504
				CHANNELS 3 Zrotation Yrotation Xrotation
				JOINT Neck
				{
					OFFSET -1.339018 21.163553 -3.346758
					CHANNELS 3 Zrotation Yrotation Xrotation
					JOINT Head
					{
						OFFSET 1.011321 8.893734 5.040987
						CHANNELS 3 Zrotation Yrotation Xrotation
						End Site
						{
							OFFSET 0.000000 0.000000 0.000000
						}
					}
				}
				JOINT Left_collar
				{
					OFFSET 7.170247 11.399971 -1.889817
					CHANNELS 3 Zrotation Yrotation Xrotation
					JOINT Left_shoulder
					{
						OFFSET 12.292140 4.520507 -1.904600
						CHANNELS 3 Zrotation Yrotation Xrotation
						JOINT Left_elbow
						{
							OFFSET 25.533188 -1.564902 -2.294648
							CHANNELS 3 Zrotation Yrotation Xrotation
							JOINT Left_wrist
							{
								OFFSET 26.570929 1.269810 -0.737473
								CHANNELS 3 Zrotation Yrotation Xrotation
								JOINT Left_palm
								{
									OFFSET 8.669054 -1.063602 -1.559429
									CHANNELS 3 Zrotation Yrotation Xrotation
									End Site
									{
										OFFSET 0.000000 0.000000 0.000000
									}
								}
							}
						}
					}
				}
				JOINT Right_collar
				{
					OFFSET -8.295364 11.247234 -2.370738
					CHANNELS 3 Zrotation Yrotation Xrotation
					JOINT Right_shoulder
					{
						OFFSET -11.322830 4.685326 -0.847207
						CHANNELS 3 Zrotation Yrotation Xrotation
						JOINT Right_elbow
						{
							OFFSET -26.012751 -1.436928 -3.126872
							CHANNELS 3 Zrotation Yrotation Xrotation
							JOINT Right_wrist
							{
								OFFSET -26.910841 0.679372 -0.602677
								CHANNELS 3 Zrotation Yrotation Xrotation
								JOINT Right_palm
								{
									OFFSET -8.875370 -0.865157 -1.010708
									CHANNELS 3 Zrotation Yrotation Xrotation
									End Site
									{
										OFFSET 0.000000 0.000000 0.000000
									}
								}
							}
						}
					}
				}
			}
		}
	}
}
MOTION
Frames: 5
Frame Time: 0.016667
-0.217368 71.530190 2.858379 -0.817706 -12.461018 -0.002656 2.681291 0.251856 4.180300 -1.061831 0.197437 -3.272729 1.830091 6.668528 8.443989 0.000000 0.000000 0.000000 -4.100242 -0.122771 3.397439 4.894248 -0.502657 -4.639571 -0.399634 -5.144514 10.068856 0.000000 0.000000 0.000000 7.462112 -0.332904 2.560321 -4.772219 1.840513 -21.151404 -1.303970 12.680575 22.714274 11.649332 -5.428951 -17.352941 0.000000 0.000000 0.000000 -35.050717 -2.240470 -2.331412 -29.425075 -6.110595 -1.869174 3.775506 -11.713943 0.055249 0.000000 0.000000 0.000000 0.000000 0.000000 0.000000 41.389733 -6.571474 -10.032484 31.394590 3.272191 -1.944079 -5.051994 16.484446 -0.114460 0.000000 0.000000 0.000000 0.000000 0.000000 0.000000 
-0.239867 71.559685 2.852577 -2.002100 -14.271458 0.450279 3.179235 0.284759 5.077366 0.254646 0.117487 -4.007091 2.246875 6.971563 6.922254 0.000000 0.000000 0.000000 -3.497542 -0.128171 3.015820 5.318605 -0.522281 -5.751348 0.011246 -4.417054 10.332440 0.000000 0.000000 0.000000 9.548651 -0.312598 1.880855 -5.644832 2.053660 -21.921385 0.909429 13.872198 24.434398 9.654755 -3.924085 -19.339073 0.000000 0.000000 0.000000 -39.334397 -0.138784 -4.439862 -27.118837 -9.867213 -1.026862 3.455863 -5.931415 0.051916 0.000000 0.000000 0.000000 0.000000 0.000000 0.000000 44.405767 -8.687411 -12.546715 29.311965 5.659891 -1.330685 -8.328827 12.070718 -0.329003 0.000000 0.000000 0.000000 0.000000 0.000000 0.000000 
-0.233715 71.559853 2.854227 -1.639373 -14.772442 0.290667 3.076599 0.309243 5.366604 -0.141856 0.163521 -4.511680 2.439506 7.403411 7.237392 0.000000 0.000000 0.000000 -3.744907 -0.143235 3.421929 4.924317 -0.499637 -5.954215 0.287433 -3.881497 10.371669 0.000000 0.000000 0.000000 9.238480 -0.260507 1.517037 -6.249443 2.230030 -21.386145 1.225880 13.134728 24.826294 8.854846 -3.483459 -19.324061 0.000000 0.000000 0.000000 -38.985943 -0.403827 -4.185215 -28.095762 -9.263063 -1.167829 5.436055 -4.688445 -0.027046 0.000000 0.000000 0.000000 0.000000 0.000000 0.000000 43.408279 -8.038496 -11.734677 31.798059 4.659651 -1.650582 -9.005946 12.307045 -0.397540 0.000000 0.000000 0.000000 0.000000 0.000000 0.000000 
-0.239319 71.626663 2.857727 -1.698283 -15.579329 0.559705 3.355449 0.287956 5.288947 -0.768334 0.225640 -5.182895 2.218839 7.260737 8.136550 0.000000 0.000000 0.000000 -4.050233 -0.142133 3.655981 5.860029 -0.539938 -6.785760 0.274217 -4.103123 10.915914 0.000000 0.000000 0.000000 9.784504 -0.259664 1.416944 -6.486584 2.255413 -22.443640 1.262867 14.272395 25.775539 9.460907 -3.463907 -21.406184 0.000000 0.000000 0.000000 -39.417639 -0.651091 -4.050348 -28.097593 -9.448586 -1.130689 5.851569 -3.674893 -0.026870 0.000000 0.000000 0.000000 0.000000 0.000000 0.000000 45.114369 -8.557473 -12.632447 31.922759 3.642091 -1.890131 -10.524861 11.528156 -0.480198 0.000000 0.000000 0.000000 0.000000 0.000000 0.000000 
-0.242521 71.527351 2.849946 -1.703489 -15.972256 0.025845 3.435079 0.310359 5.728947 -0.930465 0.237915 -5.255792 2.012359 6.820904 7.858795 0.000000 0.000000 0.000000 -4.647425 -0.147825 4.306414 6.598473 -0.572697 -6.869010 0.497320 -3.602659 10.748696 0.000000 0.000000 0.000000 9.514327 -0.327762 2.009634 -6.392648 2.238377 -22.239889 1.164647 14.076756 25.896503 9.344620 -3.366790 -21.617632 0.000000 0.000000 0.000000 -39.272461 -0.678711 -4.009436 -29.194583 -9.362987 -1.175249 6.780262 -2.749640 -0.030841 0.000000 0.000000 0.000000 0.000000 0.000000 0.000000 45.146670 -8.343443 -12.458478 32.745199 3.010464 -2.085292 -10.944801 11.158538 -0.489218 0.000000 0.000000 0.000000 0.000000 0.000000 0.000000 
